:version 1.10
:name ASF
:units
  mass 1
  length 1
  angle deg
:documentation
  ASF file generated by Kaydara
:root
  axis xyz
  order  tx ty tz rx ry rz
  position 0 0 0
  orientation 0 0 0
:bonedata
  begin
    id 1
    name SpineDummy
    direction 0.999998 -0.00179978 1.38929e-006
    length 3.60008
    axis 0 0 0 xyz
  end
  begin
    id 2
    name Spine
    direction 0.964365 0.262802 0.0305839
    length 8.13928
    axis 1.33928 -1.75354 15.2838 xyz
    dof rx ry rz
  end
  begin
    id 3
    name Spine1
    direction 0.811168 0.572065 0.12144
    length 7.14954
    axis 2.2224 -6.9761 35.2157 xyz
    dof rx ry rz
  end
  begin
    id 4
    name Neck
    direction 0 0 0
    length 0
    axis 2.2224 -6.9761 35.2157 xyz
    dof rx ry rz
  end
  begin
    id 5
    name HeadDummy
    direction 0.810939 0.572387 0.121455
    length 3.55534
    axis 2.2224 -6.9761 35.2157 xyz
  end
  begin
    id 6
    name Head
    direction 0.998226 -0.000232542 0.0595419
    length 7.35666
    axis -3.03688 -3.41352 -0.0133467 xyz
    dof rx ry rz
  end
  begin
    id 7
    name R_ClavicleDummy
    direction 0.531669 -0.194489 -0.824319
    length 2.49392
    axis 2.2224 -6.9761 35.2157 xyz
  end
  begin
    id 8
    name R_Clavicle
    direction -0.155119 0.0480802 -0.986725
    length 4.485
    axis -54.2764 80.6538 162.779 xyz
    dof rx ry rz
  end
  begin
    id 9
    name R_UpperArm
    direction -0.955567 0.200068 -0.216484
    length 10.1122
    axis -72.9943 12.5026 168.175 xyz
    dof rx ry rz
  end
  begin
    id 10
    name R_Forearm
    direction -0.61433 0.385743 0.688332
    length 9.39148
    axis -117.015 -43.4982 147.875 xyz
    dof rx ry rz
  end
  begin
    id 11
    name R_Hand
    direction -0.699429 0.0170333 0.714499
    length 3.66324
    axis -45.0303 -36.7097 175.478 xyz
    dof rx ry rz
  end
  begin
    id 12
    name L_ClavicleDummy
    direction 0.40287 -0.36502 0.839319
    length 2.49392
    axis 2.2224 -6.9761 35.2157 xyz
  end
  begin
    id 13
    name L_Clavicle
    direction -0.231271 -0.0726419 0.970174
    length 4.485
    axis 18.4357 -75.9711 -162.563 xyz
    dof rx ry rz
  end
  begin
    id 14
    name L_UpperArm
    direction -0.917494 0.144359 0.370629
    length 10.1122
    axis 56.0417 -21.7544 171.058 xyz
    dof rx ry rz
  end
  begin
    id 15
    name L_Forearm
    direction -0.496786 0.615074 -0.612281
    length 9.39148
    axis 89.8094 37.7546 128.927 xyz
    dof rx ry rz
  end
  begin
    id 16
    name L_Hand
    direction -0.409932 0.64962 -0.640274
    length 3.66324
    axis -0.424369 32.133 128.52 xyz
    dof rx ry rz
  end
  begin
    id 17
    name L_ThighDummy
    direction -1.84081e-006 1.87549e-006 1
    length 3.13049
    axis 0 0 0 xyz
  end
  begin
    id 18
    name L_Thigh
    direction -0.947739 0.307978 0.083308
    length 17.9961
    axis 173.219 -4.77873 161.998 xyz
    dof rx ry rz
  end
  begin
    id 19
    name L_Calf
    direction -0.728814 -0.684427 0.0197583
    length 13.3367
    axis 167.331 -1.13214 -136.799 xyz
    dof rx ry rz
  end
  begin
    id 20
    name L_Foot
    direction -0.9028 0.418719 0.0981191
    length 5.8674
    axis 163.436 11.5135 -155.37 xyz
    dof rx ry rz
  end
  begin
    id 21
    name L_Toe0
    direction -0.35341 0.886259 0.299411
    length 4.75286
    axis 169.316 -17.4222 111.74 xyz
    dof rx ry rz
  end
  begin
    id 22
    name R_ThighDummy
    direction 9.32778e-007 -8.82053e-007 -1
    length 3.13049
    axis 0 0 0 xyz
  end
  begin
    id 23
    name R_Thigh
    direction -0.925064 0.37528 -0.0585023
    length 17.9961
    axis -178.698 3.35385 157.919 xyz
    dof rx ry rz
  end
  begin
    id 24
    name R_Calf
    direction -0.68969 -0.718776 -0.0876886
    length 13.3367
    axis -160.504 5.03065 -133.817 xyz
    dof rx ry rz
  end
  begin
    id 25
    name R_Foot
    direction -0.857405 0.418858 -0.299022
    length 5.8674
    axis -161.328 4.38911 -154.413 xyz
    dof rx ry rz
  end
  begin
    id 26
    name R_Toe0
    direction -0.100745 0.952789 -0.286433
    length 4.75286
    axis 171.683 16.6445 96.0359 xyz
    dof rx ry rz
  end
:hierarchy
  begin
    root SpineDummy L_ThighDummy R_ThighDummy
    SpineDummy Spine
    Spine Spine1
    Spine1 Neck
    Neck HeadDummy R_ClavicleDummy L_ClavicleDummy
    HeadDummy Head
    R_ClavicleDummy R_Clavicle
    R_Clavicle R_UpperArm
    R_UpperArm R_Forearm
    R_Forearm R_Hand
    L_ClavicleDummy L_Clavicle
    L_Clavicle L_UpperArm
    L_UpperArm L_Forearm
    L_Forearm L_Hand
    L_ThighDummy L_Thigh
    L_Thigh L_Calf
    L_Calf L_Foot
    L_Foot L_Toe0
    R_ThighDummy R_Thigh
    R_Thigh R_Calf
    R_Calf R_Foot
    R_Foot R_Toe0
  end

:SAMPLES-PER-SECOND 30
:FULLY-SPECIFIED
:DEGREES
1
root  -2.03722 33.6623 10.4403 -90.1513 1.30449 88.7848
Spine  -1.0095 0.461278 -27.2389
Spine1  -0.911153 4.56282 -4.7674
Neck  3.97569e-016 0 -2.38542e-015
Head  -0.876683 -2.50829 31.2509
R_Clavicle  0.4558 -19.7461 3.58768
R_UpperArm  45.7994 -12.3097 37.285
R_Forearm  3.01685 -42.3399 32.2459
R_Hand  -0.938226 8.61317 -18.5287
L_Clavicle  -0.449459 18.9257 3.31503
L_UpperArm  -19.5705 15.4346 25.376
L_Forearm  18.3312 42.8463 44.6658
L_Hand  0.0824171 2.61098 1.38264
L_Thigh  -11.1316 0.117329 -13.9637
L_Calf  -16.7827 -12.3805 40.2045
L_Foot  4.46006 14.8393 2.55641
L_Toe0  0.505156 0.034446 -6.1361
R_Thigh  1.0963 5.15481 -17.5499
R_Calf  15.9577 17.8391 45.8871
R_Foot  -2.00286 -7.52274 -0.870706
R_Toe0  -1.78853 -0.272788 -17.3235
2
root  -2.04916 33.6584 10.4561 -90.2058 1.35142 88.7493
Spine  -1.05688 0.428445 -27.0113
Spine1  -0.963016 4.52713 -4.81992
Neck  3.97569e-016 0 -2.38542e-015
Head  -0.632455 -2.62721 31.0691
R_Clavicle  0.452345 -19.916 3.53286
R_UpperArm  45.6406 -12.252 37.1293
R_Forearm  2.77426 -42.2806 32.0568
R_Hand  -0.896192 8.89889 -18.2669
L_Clavicle  -0.45215 18.7758 3.21436
L_UpperArm  -19.506 15.5934 25.2987
L_Forearm  17.9067 42.5753 44.3906
L_Hand  0.0788223 2.48943 1.34957
L_Thigh  -11.4145 0.0488661 -13.8624
L_Calf  -16.5493 -12.2698 40.0881
L_Foot  4.48571 14.8671 2.61134
L_Toe0  0.505156 0.034446 -6.1361
R_Thigh  1.23177 5.06444 -17.4224
R_Calf  15.7491 17.8463 45.7579
R_Foot  -1.98754 -7.44974 -0.843471
R_Toe0  -1.78853 -0.272788 -17.3235
3
root  -2.07413 33.6508 10.4874 -90.1012 1.47645 88.6863
Spine  -1.1362 0.232035 -26.6897
Spine1  -1.0474 4.67157 -4.68868
Neck  3.97569e-016 0 -2.38542e-015
Head  -0.087384 -2.90174 30.5437
R_Clavicle  0.448315 -20.0309 3.40724
R_UpperArm  45.0985 -12.1851 36.6339
R_Forearm  2.31213 -42.2306 31.5586
R_Hand  -0.830254 9.25497 -17.8578
L_Clavicle  -0.454672 18.54 3.10559
L_UpperArm  -19.1664 15.7444 24.8944
L_Forearm  17.0438 42.1164 43.807
L_Hand  0.0726325 2.36531 1.25129
L_Thigh  -12.0412 -0.0898747 -13.5884
L_Calf  -15.8331 -11.9788 39.8015
L_Foot  4.54538 14.9309 2.7394
L_Toe0  0.505156 0.034446 -6.1361
R_Thigh  1.52332 4.86792 -17.1785
R_Calf  15.4478 17.9234 45.566
R_Foot  -1.93922 -7.2576 -0.814955
R_Toe0  -1.78853 -0.272788 -17.3235
4
root  -2.10894 33.6376 10.5199 -89.7029 1.59528 88.6596
Spine  -1.17614 0.121418 -26.4093
Spine1  -1.05552 4.82418 -4.22224
Neck  3.97569e-016 0 -2.38542e-015
Head  0.373017 -3.18893 29.7799
R_Clavicle  0.444631 -19.8589 3.14789
R_UpperArm  44.0293 -12.2915 35.8812
R_Forearm  1.76101 -42.0663 30.519
R_Hand  -0.744143 9.40002 -17.278
L_Clavicle  -0.456727 18.4193 3.00724
L_UpperArm  -18.4766 15.609 24.1978
L_Forearm  15.7767 41.5693 43.0419
L_Hand  0.0668504 2.35149 1.11561
L_Thigh  -13.0211 -0.228293 -13.2126
L_Calf  -14.5134 -11.4413 39.3044
L_Foot  4.63533 14.9369 3.00276
L_Toe0  0.505156 0.034446 -6.1361
R_Thigh  1.92061 4.65356 -16.9369
R_Calf  15.2964 18.0721 45.3084
R_Foot  -1.88897 -7.02435 -0.732485
R_Toe0  -1.78853 -0.272788 -17.3235
5
root  -2.15477 33.6127 10.5536 -89.1781 1.57343 88.7041
Spine  -1.11338 0.669692 -25.7899
Spine1  -0.901806 4.25118 -3.78681
Neck  3.97569e-016 0 -2.38542e-015
Head  0.39952 -3.28688 28.9808
R_Clavicle  0.438533 -19.6176 2.80699
R_UpperArm  42.3336 -12.4997 35.0257
R_Forearm  1.1456 -41.673 28.812
R_Hand  -0.621606 9.34927 -16.3981
L_Clavicle  -0.459791 18.3385 2.8589
L_UpperArm  -16.9697 15.2535 23.583
L_Forearm  13.3329 40.4836 41.8038
L_Hand  0.0601864 2.38457 0.971104
L_Thigh  -14.5958 -0.312834 -12.8256
L_Calf  -12.514 -10.535 38.4748
L_Foot  4.74058 14.7747 3.44586
L_Toe0  0.505156 0.034446 -6.1361
R_Thigh  2.44429 4.49358 -16.7469
R_Calf  15.1261 18.15 44.811
R_Foot  -1.85985 -6.7844 -0.5182
R_Toe0  -1.78853 -0.272788 -17.3235
6
root  -2.21237 33.5746 10.592 -88.6832 1.41407 88.8148
Spine  -0.926281 2.03456 -24.5908
Spine1  -0.591362 2.6402 -3.68563
Neck  3.97569e-016 0 -2.38542e-015
Head  0.016886 -3.15294 28.1844
R_Clavicle  0.431651 -19.5889 2.51967
R_UpperArm  40.0406 -12.5548 34.0734
R_Forearm  0.56943 -41.0581 26.6729
R_Hand  -0.45968 9.19571 -15.1973
L_Clavicle  -0.461766 18.0955 2.71356
L_UpperArm  -13.6402 14.9803 23.3427
L_Forearm  8.81809 38.0574 39.8482
L_Hand  0.0483283 2.46239 0.796901
L_Thigh  -16.8061 -0.34427 -12.421
L_Calf  -9.97129 -9.21988 37.3448
L_Foot  4.84824 14.4704 4.01517
L_Toe0  0.505156 0.034446 -6.1361
R_Thigh  3.07493 4.40584 -16.5784
R_Calf  14.7627 18.069 44.0724
R_Foot  -1.82638 -6.47689 -0.213876
R_Toe0  -1.78853 -0.272788 -17.3235
7
root  -2.27777 33.5314 10.6207 -88.0812 1.30278 88.9986
Spine  -0.631527 3.64908 -23.2832
Spine1  -0.179955 0.70735 -3.66559
Neck  3.97569e-016 0 -2.38542e-015
Head  -0.503882 -2.97385 27.3271
R_Clavicle  0.425633 -19.6028 2.27281
R_UpperArm  37.1119 -12.4647 32.9271
R_Forearm  0.715917 -40.0919 24.5978
R_Hand  -0.276462 8.91311 -13.7639
L_Clavicle  -0.460324 17.756 2.70351
L_UpperArm  -8.41852 14.9313 23.3868
L_Forearm  2.96305 34.1923 37.8105
L_Hand  0.026121 2.74268 0.476181
L_Thigh  -19.0865 -0.344508 -11.9055
L_Calf  -7.32615 -7.69595 36.1815
L_Foot  4.95457 14.1382 4.61166
L_Toe0  0.505156 0.034446 -6.1361
R_Thigh  3.61852 4.3821 -16.3865
R_Calf  14.603 18.0168 43.3498
R_Foot  -1.77448 -6.11202 0.0885262
R_Toe0  -1.78853 -0.272788 -17.3235
8
root  -2.3444 33.4879 10.6215 -87.1521 1.3776 89.2685
Spine  -0.254628 4.86092 -22.371
Spine1  0.28168 -0.639104 -3.49293
Neck  3.97569e-016 0 -2.38542e-015
Head  -1.01132 -2.92146 26.5431
R_Clavicle  0.417833 -19.3656 1.96924
R_UpperArm  33.7771 -12.401 31.6309
R_Forearm  2.01021 -38.6843 23.0594
R_Hand  -0.127614 8.49375 -12.4558
L_Clavicle  -0.457748 17.5785 2.82571
L_UpperArm  -3.66967 15.0357 23.4794
L_Forearm  -1.77213 30.3426 36.4346
L_Hand  -0.0185758 3.2474 -0.109138
L_Thigh  -20.7134 -0.323924 -11.2185
L_Calf  -5.03227 -6.2698 35.1466
L_Foot  5.07507 13.8563 5.21663
L_Toe0  0.505156 0.034446 -6.1361
R_Thigh  4.04328 4.39663 -16.1535
R_Calf  14.9496 18.1951 42.7788
R_Foot  -1.73268 -5.7805 0.405519
R_Toe0  -1.78853 -0.272788 -17.3235
9
root  -2.40956 33.4348 10.5997 -85.9039 1.54317 89.5888
Spine  0.205611 5.54237 -21.5368
Spine1  0.763631 -1.31471 -3.51089
Neck  3.97569e-016 0 -2.38542e-015
Head  -1.5796 -2.92827 26.0731
R_Clavicle  0.409883 -19.0869 1.71519
R_UpperArm  30.9808 -12.1342 30.3753
R_Forearm  3.52919 -37.3363 22.1486
R_Hand  -0.0787625 8.14847 -11.8863
L_Clavicle  -0.456206 17.5955 2.93543
L_UpperArm  -1.47624 15.254 23.549
L_Forearm  -4.26451 28.0178 35.5919
L_Hand  -0.0816278 3.67212 -0.861817
L_Thigh  -21.3941 -0.296176 -10.4013
L_Calf  -3.33917 -5.09641 34.0738
L_Foot  5.235 13.6475 5.88418
L_Toe0  0.505156 0.034446 -6.1361
R_Thigh  4.7739 4.39841 -15.884
R_Calf  15.2043 18.4138 42.148
R_Foot  -1.70824 -5.44884 0.839101
R_Toe0  -1.78853 -0.272788 -17.3235
10
root  -2.47835 33.3622 10.5707 -84.4254 1.62415 89.8865
Spine  0.713653 5.88583 -20.2221
Spine1  1.21422 -1.75516 -4.029
Neck  3.97569e-016 0 -2.38542e-015
Head  -2.35228 -2.81796 25.8473
R_Clavicle  0.410703 -19.1726 1.72986
R_UpperArm  28.8209 -11.1862 29.2457
R_Forearm  4.9178 -36.506 21.6469
R_Hand  -0.140842 8.11848 -12.3489
L_Clavicle  -0.45583 17.6287 2.96596
L_UpperArm  -1.13428 15.55 23.5879
L_Forearm  -5.4176 27.1633 35.1583
L_Hand  -0.128898 3.74733 -1.43118
L_Thigh  -20.8419 -0.305471 -9.54851
L_Calf  -2.59408 -4.3393 32.7516
L_Foot  5.43342 13.5181 6.60243
L_Toe0  0.505156 0.034446 -6.1361
R_Thigh  6.30149 4.33751 -15.5883
R_Calf  14.6807 18.2955 41.1721
R_Foot  -1.6849 -5.02164 1.47051
R_Toe0  -1.78853 -0.272788 -17.3235
